<?xml version="1.0" encoding="utf-8"?>
<!-- Generator: Adobe Illustrator 27.2.0, SVG Export Plug-In . SVG Version: 6.00 Build 0)  -->
<svg version="1.1" id="Layer_1" xmlns="http://www.w3.org/2000/svg" xmlns:xlink="http://www.w3.org/1999/xlink" x="0px" y="0px"
	 viewBox="0 0 300 75.3" style="enable-background:new 0 0 300 75.3;" xml:space="preserve">
<style type="text/css">
	.st0{fill:#00272F;}
	.st1{fill:#44C1E7;}
	.st2{fill:#F26F6C;}
	.st3{fill:#005463;}
</style>
<g>
	<g id="WordMark">
		<path class="st0" d="M116.1,46.4l8.2-26.9h12.3l-13.4,37.7h-14.3L95.5,19.5h12.4L116.1,46.4z"/>
		<path class="st0" d="M174,41.2h-26c0.2,2.3,0.9,4.1,2.3,5.3s2.9,1.8,4.9,1.8c2.9,0,4.9-1.2,6-3.6h12.2c-0.6,2.5-1.8,4.7-3.4,6.6
			s-3.7,3.5-6.1,4.6c-2.5,1.1-5.2,1.7-8.3,1.7c-3.7,0-6.9-0.8-9.8-2.4c-2.9-1.6-5.1-3.8-6.7-6.7c-1.6-2.9-2.4-6.3-2.4-10.2
			s0.8-7.3,2.4-10.2c1.6-2.9,3.8-5.1,6.7-6.7c2.9-1.6,6.2-2.4,9.9-2.4c3.7,0,6.9,0.8,9.7,2.3c2.8,1.5,5,3.7,6.6,6.5
			c1.6,2.8,2.4,6.1,2.4,9.9C174.2,38.9,174.1,40.1,174,41.2L174,41.2z M162.4,34.8c0-2-0.7-3.5-2-4.7c-1.3-1.2-3-1.7-5-1.7
			c-2,0-3.5,0.6-4.9,1.7c-1.3,1.1-2.1,2.7-2.4,4.8H162.4z"/>
		<path class="st0" d="M210.9,23.3c2.6,2.9,4,6.8,4,11.8v22.1h-11.5V36.7c0-2.5-0.7-4.5-2-5.9c-1.3-1.4-3.1-2.1-5.3-2.1
			s-4,0.7-5.3,2.1c-1.3,1.4-2,3.4-2,5.9v20.5h-11.6V19.5h11.6v5c1.2-1.7,2.7-3,4.7-4c2-1,4.2-1.5,6.7-1.5
			C204.8,19,208.3,20.5,210.9,23.3L210.9,23.3z"/>
		<path class="st0" d="M270.4,55.4c-2.9-1.6-5.3-3.8-6.9-6.7c-1.7-2.9-2.5-6.3-2.5-10.2s0.9-7.3,2.6-10.2s4-5.2,7-6.8
			c3-1.6,6.3-2.4,10-2.4s7,0.8,10,2.4c3,1.6,5.3,3.8,7,6.8c1.7,2.9,2.6,6.3,2.6,10.2s-0.9,7.3-2.6,10.2c-1.7,2.9-4.1,5.2-7.1,6.8
			c-3,1.6-6.3,2.4-10,2.4C276.6,57.7,273.3,57,270.4,55.4L270.4,55.4z M286,45.3c1.5-1.6,2.3-3.9,2.3-6.9c0-3-0.8-5.3-2.3-6.9
			c-1.5-1.6-3.4-2.4-5.6-2.4s-4.1,0.8-5.6,2.4c-1.5,1.6-2.2,3.9-2.2,7s0.7,5.3,2.2,6.9c1.5,1.6,3.3,2.4,5.5,2.4S284.4,47,286,45.3
			L286,45.3z"/>
		<path class="st0" d="M246.2,4.9v19.9c-1.2-1.8-2.8-3.1-4.8-4.2c-2-1-4.3-1.5-6.8-1.5c-3.1,0-5.9,0.8-8.4,2.4
			c-2.5,1.6-4.5,3.8-6,6.7c-1.5,2.9-2.2,6.3-2.2,10.2s0.7,7.3,2.2,10.2c1.5,2.9,3.4,5.2,6,6.8s5.3,2.4,8.4,2.4c2.6,0,5-0.5,7-1.6
			c2-1.1,3.5-2.5,4.6-4.3v5.4h11.5V0.8L246.2,4.9L246.2,4.9z M243.8,45.2c-1.6,1.7-3.5,2.5-5.8,2.5c-2.3,0-4.2-0.8-5.8-2.5
			c-1.6-1.7-2.4-4-2.4-6.8c0-2.9,0.8-5.1,2.4-6.8c1.6-1.6,3.5-2.5,5.8-2.5c2.3,0,4.2,0.8,5.8,2.5c1.6,1.7,2.4,3.9,2.4,6.8
			C246.2,41.3,245.4,43.6,243.8,45.2L243.8,45.2z"/>
	</g>
	<g id="Symbol">
		<polygon class="st1" points="63.3,0 0,22.4 21.3,43.2 63.3,0 		"/>
		<polygon class="st1" points="56.2,59.8 36,57.4 54.3,75.3 		"/>
		<polygon class="st2" points="10.4,54.4 36,57.4 21.3,43.2 		"/>
		<polygon class="st2" points="85.7,63.3 63.3,0 63.3,0 56.2,59.8 		"/>
		<polygon class="st3" points="63.3,0 21.3,43.2 36,57.4 56.2,59.8 		"/>
	</g>
</g>
</svg>
